<svg xmlns="http://www.w3.org/2000/svg" enable-background="new 0 0 26.29 15" viewBox="0 0 26.29 15" id="VkLogo"><path d="M4.556,0.684H0.768c0,0-1.081,0.131-0.678,0.957c0.518,1.063,4.04,8.964,7.338,11.246c3.047,2.108,4.772,2.034,5.304,2.034c0.532,0,2.034,0,2.034,0s0.638-0.199,0.638-0.758s0.093-2.393,0.837-2.592c0.744-0.199,1.382,0.572,2.233,1.515S20.255,15,21.026,15s3.562,0,4.107,0s1.156-0.443,1.156-0.798s-0.239-0.997-0.837-1.755c-0.598-0.758-2.805-2.858-3.031-3.031s-0.439-0.625-0.439-0.877s0.213-0.891,0.877-1.675s3.39-4.533,3.39-5.104s0.066-1.077-1.037-1.077s-3.918,0-4.357,0c-0.508,0-0.761,0.532-0.987,0.997s-2.22,4.878-3.589,5.583c-1.369,0.705-0.877-2.964-0.877-3.27s0.279-2.778-0.239-3.35s-1.316-0.572-3.35-0.638S9.036,0.471,8.783,1.042c0.332,0.16,1.299,0.084,1.436,1.196c0.14,1.137,0.379,3.609-0.199,4.785C9.441,8.201,7.806,5.609,7.587,5.27C7.368,4.931,5.912,2.279,5.673,1.601S5.095,0.684,4.556,0.684z" fill="#ffffff" class="color000000 svgShape"></path></svg>